<svg xmlns="http://www.w3.org/2000/svg" viewBox="0 0 64 64"><g data-name="18-Castle"><path style="fill:#7e8596" d="M63 59v4H1v-4h62z"/><path d="M34 43.22V59h-4V43.22a9.2 9.2 0 0 1 4 0z" style="fill:#ffb13b"/><path d="M41 52v7h-7V43.22A9.034 9.034 0 0 1 41 52zM30 43.22V59h-7v-7a9.008 9.008 0 0 1 7-8.78z" style="fill:#f5cd62"/><path style="fill:#ffb13b" d="M52 38h4v4h-4zM52 30h4v4h-4zM39 35h4v4h-4zM30 35h4v4h-4zM21 35h4v4h-4zM8 38h4v4H8zM8 30h4v4H8zM12 13v3H8v-3a2.006 2.006 0 0 1 2-2 2.015 2.015 0 0 1 2 2zM56 13v3h-4v-3a2.006 2.006 0 0 1 2-2 2.015 2.015 0 0 1 2 2z"/><path style="fill:#cfa388" d="M63 16v10H45V16h4v4h3v-4h4v4h3v-4h4z"/><path style="fill:#9f72fc" d="M62 8H46l8-7 8 7z"/><path d="M61 26v33H47V26zm-5 16v-4h-4v4zm0-8v-4h-4v4zM61 8v8h-2v4h-3v-7a2.015 2.015 0 0 0-2-2 2.006 2.006 0 0 0-2 2v7h-3v-4h-2V8z" style="fill:#a37862"/><path d="M34 43.22a9.2 9.2 0 0 0-4 0A9.008 9.008 0 0 0 23 52v7h-6V31h30v28h-6v-7a9.034 9.034 0 0 0-7-8.78zM43 39v-4h-4v4zm-9 0v-4h-4v4zm-9 0v-4h-4v4z" style="fill:#b2876d"/><path style="fill:#cfa388" d="M41 21v10H23V21h4v4h3v-4h4v4h3v-4h4z"/><path style="fill:#9f72fc" d="m32 1 8 12H24l8-12z"/><path d="M39 13v8h-2v4h-3v-7a2.015 2.015 0 0 0-2-2 2.006 2.006 0 0 0-2 2v7h-3v-4h-2v-8z" style="fill:#a37862"/><path d="M34 18v3h-4v-3a2.006 2.006 0 0 1 2-2 2.015 2.015 0 0 1 2 2z" style="fill:#ffb13b"/><path style="fill:#cfa388" d="M19 16v10H1V16h4v4h3v-4h4v4h3v-4h4z"/><path style="fill:#9f72fc" d="M18 8H2l8-7 8 7z"/><path d="M17 31v28H3V26h14zm-5 11v-4H8v4zm0-8v-4H8v4zM17 8v8h-2v4h-3v-7a2.015 2.015 0 0 0-2-2 2.006 2.006 0 0 0-2 2v7H5v-4H3V8z" style="fill:#a37862"/><path style="fill:#966857" d="M3 47h7v2H3v2h4v2H3v2h11v-2H9v-2h4v-2h-1v-2h3v-2H3v2zM61 47v-2H49v2h3v2h-1v2h4v2h-5v2h11v-2h-4v-2h4v-2h-7v-2h7z"/><path d="M63 27a1 1 0 0 0 1-1V16a1 1 0 0 0-1-1h-1V9a1 1 0 0 0 .658-1.752l-8-7a1 1 0 0 0-1.316 0l-8 7A1 1 0 0 0 46 9v6h-1a1 1 0 0 0-1 1v10a1 1 0 0 0 1 1h1v3h-4v-9a1 1 0 0 0-1-1h-1v-6a1 1 0 0 0 .832-1.555l-8-12a1.039 1.039 0 0 0-1.664 0l-8 12A1 1 0 0 0 24 14v6h-1a1 1 0 0 0-1 1v9h-4v-3h1a1 1 0 0 0 1-1V16a1 1 0 0 0-1-1h-1V9a1 1 0 0 0 .658-1.752l-8-7a1 1 0 0 0-1.316 0l-8 7A1 1 0 0 0 2 9v6H1a1 1 0 0 0-1 1v10a1 1 0 0 0 1 1h1v31H1a1 1 0 0 0-1 1v4a1 1 0 0 0 1 1h62a1 1 0 0 0 1-1v-4a1 1 0 0 0-1-1h-1V27zM54 2.329 59.339 7H48.661zM48 9h12v6h-1a1 1 0 0 0-1 1v3h-1v-6a3 3 0 0 0-6 0v6h-1v-3a1 1 0 0 0-1-1h-1zm7 6h-2v-2a1 1 0 0 1 2 0zm-9 2h2v3a1 1 0 0 0 1 1h3a1 1 0 0 0 1-1v-3h2v3a1 1 0 0 0 1 1h3a1 1 0 0 0 1-1v-3h2v8H46zm0 41h-4v-6a10 10 0 0 0-20 0v6h-4V32h28zm-22 0v-6a8.009 8.009 0 0 1 5-7.411V58zm7-13.931a7.281 7.281 0 0 1 2 0V58h-2zm4 .52A8.009 8.009 0 0 1 40 52v6h-5zM32 2.8l6.132 9.2H25.868zM26 14h12v6h-1a1 1 0 0 0-1 1v3h-1v-6a3 3 0 0 0-6 0v6h-1v-3a1 1 0 0 0-1-1h-1zm7 6h-2v-2a1 1 0 0 1 2 0zm-9 2h2v3a1 1 0 0 0 1 1h3a1 1 0 0 0 1-1v-3h2v3a1 1 0 0 0 1 1h3a1 1 0 0 0 1-1v-3h2v8H24zM10 2.329 15.339 7H4.661zM4 9h12v6h-1a1 1 0 0 0-1 1v3h-1v-6a3 3 0 0 0-6 0v6H6v-3a1 1 0 0 0-1-1H4zm7 6H9v-2a1 1 0 0 1 2 0zm-9 2h2v3a1 1 0 0 0 1 1h3a1 1 0 0 0 1-1v-3h2v3a1 1 0 0 0 1 1h3a1 1 0 0 0 1-1v-3h2v8H2zm2 32v-2h6v2zm0 4v-2h3v2zm0 2h10v-2H9v-2h4v-2h-1v-2h3v-2H4V27h12v31H4zm58 7H2v-2h60zm-2-15v2h-6v-2zm0 4v2h-3v-2zm0-6H49v2h3v2h-1v2h4v2h-5v2h10v3H48V27h12z"/><path d="M25 34h-4a1 1 0 0 0-1 1v4a1 1 0 0 0 1 1h4a1 1 0 0 0 1-1v-4a1 1 0 0 0-1-1zm-1 4h-2v-2h2zM34 34h-4a1 1 0 0 0-1 1v4a1 1 0 0 0 1 1h4a1 1 0 0 0 1-1v-4a1 1 0 0 0-1-1zm-1 4h-2v-2h2zM38 35v4a1 1 0 0 0 1 1h4a1 1 0 0 0 1-1v-4a1 1 0 0 0-1-1h-4a1 1 0 0 0-1 1zm2 1h2v2h-2zM52 35h4a1 1 0 0 0 1-1v-4a1 1 0 0 0-1-1h-4a1 1 0 0 0-1 1v4a1 1 0 0 0 1 1zm1-4h2v2h-2zM52 43h4a1 1 0 0 0 1-1v-4a1 1 0 0 0-1-1h-4a1 1 0 0 0-1 1v4a1 1 0 0 0 1 1zm1-4h2v2h-2zM12 29H8a1 1 0 0 0-1 1v4a1 1 0 0 0 1 1h4a1 1 0 0 0 1-1v-4a1 1 0 0 0-1-1zm-1 4H9v-2h2zM12 37H8a1 1 0 0 0-1 1v4a1 1 0 0 0 1 1h4a1 1 0 0 0 1-1v-4a1 1 0 0 0-1-1zm-1 4H9v-2h2z"/></g></svg>